<?xml version="1.0" encoding="iso-8859-1"?>
<!-- Generator: Adobe Illustrator 19.0.0, SVG Export Plug-In . SVG Version: 6.00 Build 0)  -->
<svg version="1.1" id="Layer_1" xmlns="http://www.w3.org/2000/svg" xmlns:xlink="http://www.w3.org/1999/xlink" x="0px" y="0px"
	 viewBox="0 0 496 496" style="enable-background:new 0 0 496 496;" xml:space="preserve">
<rect x="64" y="152" style="fill:#F9BA48;" width="344" height="312"/>
<g>
	<path style="fill:#333333;" d="M456,120H40c-22.056,0-40,17.944-40,40v296c0,22.056,17.944,40,40,40h416c22.056,0,40-17.944,40-40
		V160C496,137.944,478.056,120,456,120z M480,456c0,13.232-10.768,24-24,24H40c-13.232,0-24-10.768-24-24V160
		c0-13.232,10.768-24,24-24h416c13.232,0,24,10.768,24,24V456z"/>
	<rect x="32" y="256" style="fill:#333333;" width="16" height="64"/>
	<rect x="32" y="352" style="fill:#333333;" width="16" height="16"/>
	<path style="fill:#333333;" d="M444,284c-15.44,0-28,12.56-28,28s12.56,28,28,28s28-12.56,28-28S459.44,284,444,284z M444,324
		c-6.616,0-12-5.384-12-12s5.384-12,12-12s12,5.384,12,12S450.616,324,444,324z"/>
	<path style="fill:#333333;" d="M200,248c0-17.648-14.352-32-32-32s-32,14.352-32,32s14.352,32,32,32S200,265.648,200,248z M168,264
		c-8.824,0-16-7.176-16-16s7.176-16,16-16s16,7.176,16,16S176.824,264,168,264z"/>
	<path style="fill:#333333;" d="M168,328c39.704,0,72-32.296,72-72s-32.296-72-72-72s-72,32.296-72,72S128.296,328,168,328z
		 M152.232,309.704C153.36,301.976,159.968,296,168,296s14.64,5.976,15.768,13.704C178.76,311.176,173.48,312,168,312
		S157.24,311.176,152.232,309.704z M168,200c30.872,0,56,25.128,56,56c0,19.616-10.168,36.888-25.48,46.888
		C194.568,289.696,182.464,280,168,280s-26.568,9.696-30.52,22.888C122.168,292.888,112,275.616,112,256
		C112,225.128,137.128,200,168,200z"/>
	<rect x="256" y="184" style="fill:#333333;" width="120" height="16"/>
	<rect x="256" y="216" style="fill:#333333;" width="120" height="16"/>
	<rect x="256" y="248" style="fill:#333333;" width="120" height="16"/>
	<rect x="256" y="280" style="fill:#333333;" width="120" height="16"/>
	<rect x="256" y="312" style="fill:#333333;" width="120" height="16"/>
	<path style="fill:#333333;" d="M240,432h136v-88H240V432z M256,360h104v56H256V360z"/>
	<rect x="96" y="352" style="fill:#333333;" width="128" height="16"/>
	<rect x="96" y="384" style="fill:#333333;" width="128" height="16"/>
	<rect x="96" y="416" style="fill:#333333;" width="128" height="16"/>
	<path style="fill:#333333;" d="M464,104c17.648,0,32-14.352,32-32s-14.352-32-32-32c-14.872,0-27.288,10.232-30.864,24H428v16
		h5.136C436.712,93.768,449.128,104,464,104z M464,56c8.824,0,16,7.176,16,16s-7.176,16-16,16s-16-7.176-16-16S455.176,56,464,56z"
		/>
	<path style="fill:#333333;" d="M32,64c14.872,0,27.288-10.232,30.864-24H68V24h-5.136C59.288,10.232,46.872,0,32,0
		C14.352,0,0,14.352,0,32S14.352,64,32,64z M32,16c8.824,0,16,7.176,16,16s-7.176,16-16,16s-16-7.176-16-16S23.176,16,32,16z"/>
	<rect x="84" y="24" style="fill:#333333;" width="16" height="16"/>
	<polygon style="fill:#333333;" points="120,44 136,44 136,24 116,24 116,40 120,40 	"/>
	<rect x="120" y="60" style="fill:#333333;" width="16" height="16"/>
	<rect x="120" y="92" style="fill:#333333;" width="16" height="12"/>
	<rect x="208" y="92" style="fill:#333333;" width="16" height="12"/>
	<polygon style="fill:#333333;" points="224,80 228,80 228,64 208,64 208,84 224,84 	"/>
	<rect x="383.552" y="64" style="fill:#333333;" width="22.216" height="16"/>
	<rect x="250.24" y="64" style="fill:#333333;" width="22.216" height="16"/>
	<rect x="339.12" y="64" style="fill:#333333;" width="22.216" height="16"/>
	<rect x="294.664" y="64" style="fill:#333333;" width="22.216" height="16"/>
</g>
<g>
</g>
<g>
</g>
<g>
</g>
<g>
</g>
<g>
</g>
<g>
</g>
<g>
</g>
<g>
</g>
<g>
</g>
<g>
</g>
<g>
</g>
<g>
</g>
<g>
</g>
<g>
</g>
<g>
</g>
</svg>
