<?xml version="1.0" encoding="iso-8859-1"?>
<!-- Generator: Adobe Illustrator 19.0.0, SVG Export Plug-In . SVG Version: 6.00 Build 0)  -->
<svg version="1.1" id="Layer_1" xmlns="http://www.w3.org/2000/svg" xmlns:xlink="http://www.w3.org/1999/xlink" x="0px" y="0px"
	 viewBox="0 0 496 496" style="enable-background:new 0 0 496 496;" xml:space="preserve">
<circle style="fill:#F9BA48;" cx="312" cy="216" r="80"/>
<g>
	<rect x="144" y="32" style="fill:#333333;" width="64" height="16"/>
	<rect x="96" y="32" style="fill:#333333;" width="16" height="16"/>
	<path style="fill:#333333;" d="M152,416c-15.44,0-28,12.56-28,28s12.56,28,28,28s28-12.56,28-28S167.44,416,152,416z M152,456
		c-6.616,0-12-5.384-12-12s5.384-12,12-12s12,5.384,12,12S158.616,456,152,456z"/>
	<path style="fill:#333333;" d="M272,163.056v105.888L377.888,216L272,163.056z M288,188.944L342.112,216L288,243.056V188.944z"/>
	<path style="fill:#333333;" d="M496,96H304V40c0-22.056-17.944-40-40-40H40C17.944,0,0,17.944,0,40v416c0,22.056,17.944,40,40,40
		h224c22.056,0,40-17.944,40-40v-80h192V96z M480,312H144V112h336V312z M40,16h224c13.232,0,24,10.768,24,24v24H16V40
		C16,26.768,26.768,16,40,16z M264,480H40c-13.232,0-24-10.768-24-24v-48h272v48C288,469.232,277.232,480,264,480z M288,392H16V80
		h272v16H128v280h160V392z M144,360v-32h336v32H144z"/>
	<rect x="160" y="336" style="fill:#333333;" width="24" height="16"/>
	<rect x="232" y="336" style="fill:#333333;" width="232" height="16"/>
	<rect x="200" y="336" style="fill:#333333;" width="16" height="16"/>
	<circle style="fill:#333333;" cx="168" cy="136" r="8"/>
	<circle style="fill:#333333;" cx="192" cy="136" r="8"/>
	<circle style="fill:#333333;" cx="216" cy="136" r="8"/>
</g>
<g>
</g>
<g>
</g>
<g>
</g>
<g>
</g>
<g>
</g>
<g>
</g>
<g>
</g>
<g>
</g>
<g>
</g>
<g>
</g>
<g>
</g>
<g>
</g>
<g>
</g>
<g>
</g>
<g>
</g>
</svg>
